<?xml version="1.0" encoding="UTF-8" standalone="no"?>
<!DOCTYPE svg PUBLIC "-//W3C//DTD SVG 1.0//EN" "http://www.w3.org/TR/2001/PR-SVG-20010719/DTD/svg10.dtd">
<svg width="69cm" height="37cm" viewBox="-181 -33 1362 739" xmlns="http://www.w3.org/2000/svg" xmlns:xlink="http://www.w3.org/1999/xlink">
  <text font-size="12.8" style="fill: #000000;text-anchor:start;font-family:sans-serif;font-style:normal;font-weight:normal" x="-50" y="280">
    <tspan x="-50" y="280"></tspan>
  </text>
  <text font-size="12.8" style="fill: #000000;text-anchor:start;font-family:sans-serif;font-style:normal;font-weight:normal" x="-70" y="417.154">
    <tspan x="-70" y="417.154"></tspan>
  </text>
  <g>
    <rect style="fill: #ffffff" x="60" y="-31.6622" width="880" height="736.067"/>
    <rect style="fill: none; fill-opacity:0; stroke-width: 2; stroke: #000000" x="60" y="-31.6622" width="880" height="736.067"/>
  </g>
  <text font-size="18.0622" style="fill: #000000;text-anchor:start;font-family:sans-serif;font-style:normal;font-weight:normal" x="829.03" y="689.372">
    <tspan x="829.03" y="689.372">Metaspace</tspan>
  </text>
  <g>
    <rect style="fill: #ffffff" x="-180" y="130" width="220" height="574.306"/>
    <rect style="fill: none; fill-opacity:0; stroke-width: 2; stroke: #000000" x="-180" y="130" width="220" height="574.306"/>
    <text font-size="12.8" style="fill: #000000;text-anchor:middle;font-family:sans-serif;font-style:normal;font-weight:normal" x="-70" y="421.053">
      <tspan x="-70" y="421.053"></tspan>
    </text>
  </g>
  <text font-size="18.0622" style="fill: #000000;text-anchor:start;font-family:sans-serif;font-style:normal;font-weight:normal" x="-81.5856" y="691.922">
    <tspan x="-81.5856" y="691.922">Code Cache</tspan>
  </text>
  <g>
    <rect style="fill: #ffffff" x="960" y="-30" width="220" height="734.306"/>
    <rect style="fill: none; fill-opacity:0; stroke-width: 2; stroke: #000000" x="960" y="-30" width="220" height="734.306"/>
  </g>
  <text font-size="18.0622" style="fill: #000000;text-anchor:start;font-family:sans-serif;font-style:normal;font-weight:normal" x="1076.35" y="690.958">
    <tspan x="1076.35" y="690.958">Java Heap</tspan>
  </text>
  <g>
    <rect style="fill: #ffffff" x="-180" y="-30" width="220" height="146.389"/>
    <rect style="fill: none; fill-opacity:0; stroke-width: 2; stroke: #000000" x="-180" y="-30" width="220" height="146.389"/>
    <text font-size="12.8" style="fill: #000000;text-anchor:middle;font-family:sans-serif;font-style:normal;font-weight:normal" x="-70" y="47.0944">
      <tspan x="-70" y="47.0944"></tspan>
    </text>
  </g>
  <g>
    <text font-size="18.0622" style="fill: #000000;text-anchor:start;font-family:sans-serif;font-style:normal;font-weight:normal" x="1000" y="7.14376">
      <tspan x="1000" y="7.14376">Foo</tspan>
    </text>
    <g>
      <g>
        <rect style="fill: #e5e5e5" x="1000" y="20" width="140" height="40"/>
        <rect style="fill: none; fill-opacity:0; stroke-width: 4; stroke: #000000" x="1000" y="20" width="140" height="40"/>
        <text font-size="12.8" style="fill: #000000;text-anchor:middle;font-family:sans-serif;font-style:normal;font-weight:normal" x="1070" y="43.9">
          <tspan x="1070" y="43.9"></tspan>
        </text>
      </g>
      <g>
        <rect style="fill: #00a300" x="1000" y="20" width="20" height="40"/>
        <rect style="fill: none; fill-opacity:0; stroke-width: 4; stroke: #000000" x="1000" y="20" width="20" height="40"/>
        <text font-size="12.8" style="fill: #000000;text-anchor:middle;font-family:sans-serif;font-style:normal;font-weight:normal" x="1010" y="43.9">
          <tspan x="1010" y="43.9"></tspan>
        </text>
      </g>
      <g>
        <rect style="fill: #ffa500" x="1020" y="20" width="20" height="40"/>
        <rect style="fill: none; fill-opacity:0; stroke-width: 4; stroke: #000000" x="1020" y="20" width="20" height="40"/>
        <text font-size="12.8" style="fill: #000000;text-anchor:middle;font-family:sans-serif;font-style:normal;font-weight:normal" x="1030" y="43.9">
          <tspan x="1030" y="43.9"></tspan>
        </text>
      </g>
    </g>
  </g>
  <g>
    <rect style="fill: #e5e5e5" x="760" y="140" width="150" height="40"/>
    <rect style="fill: none; fill-opacity:0; stroke-width: 4; stroke: #000000" x="760" y="140" width="150" height="40"/>
    <text font-size="12.8" style="fill: #000000;text-anchor:middle;font-family:sans-serif;font-style:normal;font-weight:normal" x="835" y="163.9">
      <tspan x="835" y="163.9">_next_link</tspan>
    </text>
  </g>
  <g>
    <rect style="fill: #ff9292" x="760" y="20" width="150" height="40"/>
    <rect style="fill: none; fill-opacity:0; stroke-width: 4; stroke: #000000" x="760" y="20" width="150" height="40"/>
    <text font-size="12.8" style="fill: #000000;text-anchor:middle;font-family:sans-serif;font-style:normal;font-weight:normal" x="835" y="43.9">
      <tspan x="835" y="43.9"></tspan>
    </text>
  </g>
  <g>
    <rect style="fill: #e5e5e5" x="760" y="180" width="150" height="40"/>
    <rect style="fill: none; fill-opacity:0; stroke-width: 4; stroke: #000000" x="760" y="180" width="150" height="40"/>
    <text font-size="12.8" style="fill: #000000;text-anchor:middle;font-family:sans-serif;font-style:normal;font-weight:normal" x="835" y="203.9">
      <tspan x="835" y="203.9">_methods</tspan>
    </text>
  </g>
  <g>
    <rect style="fill: #e5e5e5" x="760" y="220" width="150" height="40"/>
    <rect style="fill: none; fill-opacity:0; stroke-width: 4; stroke: #000000" x="760" y="220" width="150" height="40"/>
    <text font-size="12.8" style="fill: #000000;text-anchor:middle;font-family:sans-serif;font-style:normal;font-weight:normal" x="835" y="243.9">
      <tspan x="835" y="243.9">_constants</tspan>
    </text>
  </g>
  <g>
    <rect style="fill: #e5e5e5" x="760" y="100" width="150" height="40"/>
    <rect style="fill: none; fill-opacity:0; stroke-width: 4; stroke: #000000" x="760" y="100" width="150" height="40"/>
    <text font-size="12.8" style="fill: #000000;text-anchor:middle;font-family:sans-serif;font-style:normal;font-weight:normal" x="835" y="123.9">
      <tspan x="835" y="123.9">_java_mirror</tspan>
    </text>
  </g>
  <text font-size="18.0622" style="fill: #000000;text-anchor:start;font-family:sans-serif;font-style:normal;font-weight:normal" x="760" y="0">
    <tspan x="760" y="0">InstanceKlass*</tspan>
  </text>
  <text font-size="12.8" style="fill: #000000;text-anchor:start;font-family:sans-serif;font-style:normal;font-weight:normal" x="835" y="160">
    <tspan x="835" y="160"></tspan>
  </text>
  <g>
    <rect style="fill: #e5e5e5" x="760" y="60.6666" width="150" height="40"/>
    <rect style="fill: none; fill-opacity:0; stroke-width: 4; stroke: #000000" x="760" y="60.6666" width="150" height="40"/>
    <text font-size="12.8" style="fill: #000000;text-anchor:middle;font-family:sans-serif;font-style:normal;font-weight:normal" x="835" y="84.5666">
      <tspan x="835" y="84.5666">_class_loader_data</tspan>
    </text>
  </g>
  <g>
    <line style="fill: none; fill-opacity:0; stroke-width: 4; stroke: #000000" x1="1031.79" y1="40.3144" x2="921.972" y2="40.0309"/>
    <polygon style="fill: #000000" points="914.472,40.0115 924.485,35.0374 921.972,40.0309 924.459,45.0373 "/>
    <polygon style="fill: none; fill-opacity:0; stroke-width: 4; stroke: #000000" points="914.472,40.0115 924.485,35.0374 921.972,40.0309 924.459,45.0373 "/>
  </g>
  <g>
    <rect style="fill: #add8e6" x="760" y="260.666" width="150.333" height="56"/>
    <rect style="fill: none; fill-opacity:0; stroke-width: 4; stroke: #000000" x="760" y="260.666" width="150.333" height="56"/>
    <text font-size="12.8" style="fill: #000000;text-anchor:middle;font-family:sans-serif;font-style:normal;font-weight:normal" x="835.167" y="284.566">
      <tspan x="835.167" y="284.566">OopMap</tspan>
      <tspan x="835.167" y="300.566">VTable, ITable</tspan>
    </text>
  </g>
  <g>
    <text font-size="18.0622" style="fill: #000000;text-anchor:start;font-family:sans-serif;font-style:italic;font-weight:700" x="-172.205" y="-10">
      <tspan x="-172.205" y="-10">Caption:</tspan>
    </text>
    <g>
      <g>
        <rect style="fill: #add8e6" x="-169.247" y="14.4813" width="29.7715" height="16.9974"/>
        <rect style="fill: none; fill-opacity:0; stroke-width: 4; stroke: #000000" x="-169.247" y="14.4813" width="29.7715" height="16.9974"/>
        <text font-size="1.6" style="fill: #000000;text-anchor:middle;font-family:sans-serif;font-style:normal;font-weight:normal" x="-154.361" y="23.48">
          <tspan x="-154.361" y="23.48">...</tspan>
        </text>
      </g>
      <text font-size="15.8044" style="fill: #000000;text-anchor:start;font-family:sans-serif;font-style:normal;font-weight:normal" x="-128.587" y="26.238">
        <tspan x="-128.587" y="26.238">variable class part</tspan>
      </text>
      <text font-size="12.8" style="fill: #000000;text-anchor:start;font-family:sans-serif;font-style:normal;font-weight:normal" x="-102.383" y="14.4465">
        <tspan x="-102.383" y="14.4465"></tspan>
      </text>
    </g>
  </g>
</svg>
