<?xml version="1.0" encoding="UTF-8" standalone="no"?>
<!DOCTYPE svg PUBLIC "-//W3C//DTD SVG 1.0//EN" "http://www.w3.org/TR/2001/PR-SVG-20010719/DTD/svg10.dtd">
<svg width="69cm" height="37cm" viewBox="-181 -33 1362 739" xmlns="http://www.w3.org/2000/svg" xmlns:xlink="http://www.w3.org/1999/xlink">
  <text font-size="12.8" style="fill: #000000;text-anchor:start;font-family:sans-serif;font-style:normal;font-weight:normal" x="-50" y="280">
    <tspan x="-50" y="280"></tspan>
  </text>
  <text font-size="12.8" style="fill: #000000;text-anchor:start;font-family:sans-serif;font-style:normal;font-weight:normal" x="-70" y="417.154">
    <tspan x="-70" y="417.154"></tspan>
  </text>
  <g>
    <rect style="fill: #ffffff" x="60" y="-31.6622" width="880" height="736.067"/>
    <rect style="fill: none; fill-opacity:0; stroke-width: 2; stroke: #000000" x="60" y="-31.6622" width="880" height="736.067"/>
  </g>
  <text font-size="18.0622" style="fill: #000000;text-anchor:start;font-family:sans-serif;font-style:normal;font-weight:normal" x="829.03" y="689.372">
    <tspan x="829.03" y="689.372">Metaspace</tspan>
  </text>
  <g>
    <rect style="fill: #ffffff" x="-180" y="130" width="220" height="574.306"/>
    <rect style="fill: none; fill-opacity:0; stroke-width: 2; stroke: #000000" x="-180" y="130" width="220" height="574.306"/>
    <text font-size="12.8" style="fill: #000000;text-anchor:middle;font-family:sans-serif;font-style:normal;font-weight:normal" x="-70" y="421.053">
      <tspan x="-70" y="421.053"></tspan>
    </text>
  </g>
  <text font-size="18.0622" style="fill: #000000;text-anchor:start;font-family:sans-serif;font-style:normal;font-weight:normal" x="-81.5856" y="691.922">
    <tspan x="-81.5856" y="691.922">Code Cache</tspan>
  </text>
  <g>
    <rect style="fill: #ffffff" x="960" y="-30" width="220" height="734.306"/>
    <rect style="fill: none; fill-opacity:0; stroke-width: 2; stroke: #000000" x="960" y="-30" width="220" height="734.306"/>
  </g>
  <text font-size="18.0622" style="fill: #000000;text-anchor:start;font-family:sans-serif;font-style:normal;font-weight:normal" x="1076.35" y="690.958">
    <tspan x="1076.35" y="690.958">Java Heap</tspan>
  </text>
  <g>
    <rect style="fill: #ffffff" x="-180" y="-30" width="220" height="146.389"/>
    <rect style="fill: none; fill-opacity:0; stroke-width: 2; stroke: #000000" x="-180" y="-30" width="220" height="146.389"/>
    <text font-size="12.8" style="fill: #000000;text-anchor:middle;font-family:sans-serif;font-style:normal;font-weight:normal" x="-70" y="47.0944">
      <tspan x="-70" y="47.0944"></tspan>
    </text>
  </g>
  <g>
    <text font-size="18.0622" style="fill: #000000;text-anchor:start;font-family:sans-serif;font-style:normal;font-weight:normal" x="1000" y="7.14376">
      <tspan x="1000" y="7.14376">Foo</tspan>
    </text>
    <g>
      <g>
        <rect style="fill: #e5e5e5" x="1000" y="20" width="140" height="40"/>
        <rect style="fill: none; fill-opacity:0; stroke-width: 4; stroke: #000000" x="1000" y="20" width="140" height="40"/>
        <text font-size="12.8" style="fill: #000000;text-anchor:middle;font-family:sans-serif;font-style:normal;font-weight:normal" x="1070" y="43.9">
          <tspan x="1070" y="43.9"></tspan>
        </text>
      </g>
      <g>
        <rect style="fill: #00a300" x="1000" y="20" width="20" height="40"/>
        <rect style="fill: none; fill-opacity:0; stroke-width: 4; stroke: #000000" x="1000" y="20" width="20" height="40"/>
        <text font-size="12.8" style="fill: #000000;text-anchor:middle;font-family:sans-serif;font-style:normal;font-weight:normal" x="1010" y="43.9">
          <tspan x="1010" y="43.9"></tspan>
        </text>
      </g>
      <g>
        <rect style="fill: #ffa500" x="1020" y="20" width="20" height="40"/>
        <rect style="fill: none; fill-opacity:0; stroke-width: 4; stroke: #000000" x="1020" y="20" width="20" height="40"/>
        <text font-size="12.8" style="fill: #000000;text-anchor:middle;font-family:sans-serif;font-style:normal;font-weight:normal" x="1030" y="43.9">
          <tspan x="1030" y="43.9"></tspan>
        </text>
      </g>
    </g>
  </g>
  <g>
    <rect style="fill: #e5e5e5" x="760" y="140" width="150" height="40"/>
    <rect style="fill: none; fill-opacity:0; stroke-width: 4; stroke: #000000" x="760" y="140" width="150" height="40"/>
    <text font-size="12.8" style="fill: #000000;text-anchor:middle;font-family:sans-serif;font-style:normal;font-weight:normal" x="835" y="163.9">
      <tspan x="835" y="163.9">_next_link</tspan>
    </text>
  </g>
  <g>
    <rect style="fill: #ff9292" x="760" y="20" width="150" height="40"/>
    <rect style="fill: none; fill-opacity:0; stroke-width: 4; stroke: #000000" x="760" y="20" width="150" height="40"/>
    <text font-size="12.8" style="fill: #000000;text-anchor:middle;font-family:sans-serif;font-style:normal;font-weight:normal" x="835" y="43.9">
      <tspan x="835" y="43.9"></tspan>
    </text>
  </g>
  <g>
    <rect style="fill: #e5e5e5" x="760" y="180" width="150" height="40"/>
    <rect style="fill: none; fill-opacity:0; stroke-width: 4; stroke: #000000" x="760" y="180" width="150" height="40"/>
    <text font-size="12.8" style="fill: #000000;text-anchor:middle;font-family:sans-serif;font-style:normal;font-weight:normal" x="835" y="203.9">
      <tspan x="835" y="203.9">_methods</tspan>
    </text>
  </g>
  <g>
    <rect style="fill: #e5e5e5" x="760" y="220" width="150" height="40"/>
    <rect style="fill: none; fill-opacity:0; stroke-width: 4; stroke: #000000" x="760" y="220" width="150" height="40"/>
    <text font-size="12.8" style="fill: #000000;text-anchor:middle;font-family:sans-serif;font-style:normal;font-weight:normal" x="835" y="243.9">
      <tspan x="835" y="243.9">_constants</tspan>
    </text>
  </g>
  <g>
    <rect style="fill: #e5e5e5" x="760" y="100" width="150" height="40"/>
    <rect style="fill: none; fill-opacity:0; stroke-width: 4; stroke: #000000" x="760" y="100" width="150" height="40"/>
    <text font-size="12.8" style="fill: #000000;text-anchor:middle;font-family:sans-serif;font-style:normal;font-weight:normal" x="835" y="123.9">
      <tspan x="835" y="123.9">_java_mirror</tspan>
    </text>
  </g>
  <text font-size="18.0622" style="fill: #000000;text-anchor:start;font-family:sans-serif;font-style:normal;font-weight:normal" x="760" y="0">
    <tspan x="760" y="0">InstanceKlass*</tspan>
  </text>
  <text font-size="12.8" style="fill: #000000;text-anchor:start;font-family:sans-serif;font-style:normal;font-weight:normal" x="835" y="160">
    <tspan x="835" y="160"></tspan>
  </text>
  <g>
    <rect style="fill: #e5e5e5" x="760" y="60.6666" width="150" height="40"/>
    <rect style="fill: none; fill-opacity:0; stroke-width: 4; stroke: #000000" x="760" y="60.6666" width="150" height="40"/>
    <text font-size="12.8" style="fill: #000000;text-anchor:middle;font-family:sans-serif;font-style:normal;font-weight:normal" x="835" y="84.5666">
      <tspan x="835" y="84.5666">_class_loader_data</tspan>
    </text>
  </g>
  <g>
    <line style="fill: none; fill-opacity:0; stroke-width: 4; stroke: #000000" x1="1031.79" y1="40.3144" x2="921.972" y2="40.0309"/>
    <polygon style="fill: #000000" points="914.472,40.0115 924.485,35.0374 921.972,40.0309 924.459,45.0373 "/>
    <polygon style="fill: none; fill-opacity:0; stroke-width: 4; stroke: #000000" points="914.472,40.0115 924.485,35.0374 921.972,40.0309 924.459,45.0373 "/>
  </g>
  <g>
    <rect style="fill: #add8e6" x="760" y="260.666" width="150.333" height="56"/>
    <rect style="fill: none; fill-opacity:0; stroke-width: 4; stroke: #000000" x="760" y="260.666" width="150.333" height="56"/>
    <text font-size="12.8" style="fill: #000000;text-anchor:middle;font-family:sans-serif;font-style:normal;font-weight:normal" x="835.167" y="284.566">
      <tspan x="835.167" y="284.566">Statics, OopMap</tspan>
      <tspan x="835.167" y="300.566">VTable, ITable</tspan>
    </text>
  </g>
  <g>
    <text font-size="18.0622" style="fill: #000000;text-anchor:start;font-family:sans-serif;font-style:italic;font-weight:700" x="-172.205" y="-10">
      <tspan x="-172.205" y="-10">Caption:</tspan>
    </text>
    <g>
      <g>
        <rect style="fill: #add8e6" x="-169.247" y="14.4813" width="29.7715" height="16.9974"/>
        <rect style="fill: none; fill-opacity:0; stroke-width: 4; stroke: #000000" x="-169.247" y="14.4813" width="29.7715" height="16.9974"/>
        <text font-size="1.6" style="fill: #000000;text-anchor:middle;font-family:sans-serif;font-style:normal;font-weight:normal" x="-154.361" y="23.48">
          <tspan x="-154.361" y="23.48">...</tspan>
        </text>
      </g>
      <text font-size="15.8044" style="fill: #000000;text-anchor:start;font-family:sans-serif;font-style:normal;font-weight:normal" x="-128.587" y="26.238">
        <tspan x="-128.587" y="26.238">variable class part</tspan>
      </text>
      <text font-size="12.8" style="fill: #000000;text-anchor:start;font-family:sans-serif;font-style:normal;font-weight:normal" x="-102.383" y="14.4465">
        <tspan x="-102.383" y="14.4465"></tspan>
      </text>
    </g>
  </g>
  <g>
    <g>
      <g>
        <rect style="fill: #e5e5e5" x="1000" y="100" width="140" height="40"/>
        <rect style="fill: none; fill-opacity:0; stroke-width: 4; stroke: #000000" x="1000" y="100" width="140" height="40"/>
        <text font-size="12.8" style="fill: #000000;text-anchor:middle;font-family:sans-serif;font-style:normal;font-weight:normal" x="1070" y="123.9">
          <tspan x="1070" y="123.9"></tspan>
        </text>
      </g>
      <g>
        <rect style="fill: #00a300" x="1000" y="100" width="20" height="40"/>
        <rect style="fill: none; fill-opacity:0; stroke-width: 4; stroke: #000000" x="1000" y="100" width="20" height="40"/>
        <text font-size="12.8" style="fill: #000000;text-anchor:middle;font-family:sans-serif;font-style:normal;font-weight:normal" x="1010" y="123.9">
          <tspan x="1010" y="123.9"></tspan>
        </text>
      </g>
      <g>
        <rect style="fill: #ffa500" x="1020" y="100" width="20" height="40"/>
        <rect style="fill: none; fill-opacity:0; stroke-width: 4; stroke: #000000" x="1020" y="100" width="20" height="40"/>
        <text font-size="12.8" style="fill: #000000;text-anchor:middle;font-family:sans-serif;font-style:normal;font-weight:normal" x="1030" y="123.9">
          <tspan x="1030" y="123.9"></tspan>
        </text>
      </g>
    </g>
    <text font-size="18.0622" style="fill: #000000;text-anchor:start;font-family:sans-serif;font-style:normal;font-weight:normal" x="1000" y="90">
      <tspan x="1000" y="90">Class&lt;Foo&gt;</tspan>
    </text>
  </g>
  <g>
    <polyline style="fill: none; fill-opacity:0; stroke-width: 4; stroke: #000000" points="910,120 955.438,120 955.438,120 988.028,120 "/>
    <polygon style="fill: #000000" points="995.528,120 985.528,125 988.028,120 985.528,115 "/>
    <polygon style="fill: none; fill-opacity:0; stroke-width: 4; stroke: #000000" points="995.528,120 985.528,125 988.028,120 985.528,115 "/>
  </g>
  <g>
    <rect style="fill: #00a300" x="760.147" y="100.002" width="150" height="40"/>
    <rect style="fill: none; fill-opacity:0; stroke-width: 4; stroke: #000000" x="760.147" y="100.002" width="150" height="40"/>
    <text font-size="12.8" style="fill: #000000;text-anchor:middle;font-family:sans-serif;font-style:normal;font-weight:normal" x="835.147" y="123.902">
      <tspan x="835.147" y="123.902">_java_mirror</tspan>
    </text>
  </g>
  <g>
    <g>
      <rect style="fill: #00a300" x="-169.129" y="50" width="30.8423" height="16.9974"/>
      <rect style="fill: none; fill-opacity:0; stroke-width: 4; stroke: #000000" x="-169.129" y="50" width="30.8423" height="16.9974"/>
      <text font-size="1.6" style="fill: #000000;text-anchor:middle;font-family:sans-serif;font-style:normal;font-weight:normal" x="-153.708" y="58.9987">
        <tspan x="-153.708" y="58.9987">...</tspan>
      </text>
    </g>
    <text font-size="15.8044" style="fill: #000000;text-anchor:start;font-family:sans-serif;font-style:normal;font-weight:normal" x="-128.469" y="61.7568">
      <tspan x="-128.469" y="61.7568">heap pointers</tspan>
    </text>
  </g>
  <g>
    <rect style="fill: #fcdce2" x="1140.21" y="99.8052" width="24.0419" height="40.2408"/>
    <rect style="fill: none; fill-opacity:0; stroke-width: 4; stroke: #000000" x="1140.21" y="99.8052" width="24.0419" height="40.2408"/>
    <text font-size="12.8" style="fill: #000000;text-anchor:middle;font-family:sans-serif;font-style:normal;font-weight:normal" x="1152.23" y="123.826">
      <tspan x="1152.23" y="123.826"></tspan>
    </text>
  </g>
  <polyline style="fill: none; fill-opacity:0; stroke-width: 4; stroke: #000000" points="1152.23,99.8052 1152.23,69.9969 983.076,69.9969 983.076,40.1886 "/>
  <text font-size="12.8" style="fill: #000000;text-anchor:start;font-family:sans-serif;font-style:normal;font-weight:normal" x="-103.136" y="49.9652">
    <tspan x="-103.136" y="49.9652"></tspan>
  </text>
  <g>
    <rect style="fill: #fcdce2" x="-169.129" y="85.6742" width="30.8423" height="16.9974"/>
    <rect style="fill: none; fill-opacity:0; stroke-width: 4; stroke: #000000" x="-169.129" y="85.6742" width="30.8423" height="16.9974"/>
    <text font-size="1.6" style="fill: #000000;text-anchor:middle;font-family:sans-serif;font-style:normal;font-weight:normal" x="-153.708" y="94.6729">
      <tspan x="-153.708" y="94.6729">...</tspan>
    </text>
  </g>
  <text font-size="15.8044" style="fill: #000000;text-anchor:start;font-family:sans-serif;font-style:normal;font-weight:normal" x="-128.469" y="97.431">
    <tspan x="-128.469" y="97.431">injected fields</tspan>
  </text>
  <g>
    <rect style="fill: #e5e5e5" x="540" y="60" width="150" height="40"/>
    <rect style="fill: none; fill-opacity:0; stroke-width: 4; stroke: #000000" x="540" y="60" width="150" height="40"/>
    <text font-size="12.8" style="fill: #000000;text-anchor:middle;font-family:sans-serif;font-style:normal;font-weight:normal" x="615" y="83.9">
      <tspan x="615" y="83.9">_klasses</tspan>
    </text>
  </g>
  <g>
    <rect style="fill: #ff9292" x="540" y="20" width="150" height="40"/>
    <rect style="fill: none; fill-opacity:0; stroke-width: 4; stroke: #000000" x="540" y="20" width="150" height="40"/>
    <text font-size="12.8" style="fill: #000000;text-anchor:middle;font-family:sans-serif;font-style:normal;font-weight:normal" x="615" y="43.9">
      <tspan x="615" y="43.9"></tspan>
    </text>
  </g>
  <g>
    <rect style="fill: #e5e5e5" x="540" y="140" width="150" height="40"/>
    <rect style="fill: none; fill-opacity:0; stroke-width: 4; stroke: #000000" x="540" y="140" width="150" height="40"/>
    <text font-size="12.8" style="fill: #000000;text-anchor:middle;font-family:sans-serif;font-style:normal;font-weight:normal" x="615" y="163.9">
      <tspan x="615" y="163.9">_class_loader</tspan>
    </text>
  </g>
  <g>
    <rect style="fill: #e5e5e5" x="540" y="100" width="150" height="40"/>
    <rect style="fill: none; fill-opacity:0; stroke-width: 4; stroke: #000000" x="540" y="100" width="150" height="40"/>
    <text font-size="12.8" style="fill: #000000;text-anchor:middle;font-family:sans-serif;font-style:normal;font-weight:normal" x="615" y="123.9">
      <tspan x="615" y="123.9">...</tspan>
    </text>
  </g>
  <g>
    <rect style="fill: #e5e5e5" x="540" y="180" width="150" height="40"/>
    <rect style="fill: none; fill-opacity:0; stroke-width: 4; stroke: #000000" x="540" y="180" width="150" height="40"/>
    <text font-size="12.8" style="fill: #000000;text-anchor:middle;font-family:sans-serif;font-style:normal;font-weight:normal" x="615" y="203.9">
      <tspan x="615" y="203.9">_next</tspan>
    </text>
  </g>
  <text font-size="18.0622" style="fill: #000000;text-anchor:start;font-family:sans-serif;font-style:normal;font-weight:normal" x="540" y="0">
    <tspan x="540" y="0">ClassLoaderData*</tspan>
  </text>
  <text font-size="12.8" style="fill: #000000;text-anchor:start;font-family:sans-serif;font-style:normal;font-weight:normal" x="640" y="80">
    <tspan x="640" y="80"></tspan>
  </text>
  <text font-size="12.8" style="fill: #000000;text-anchor:start;font-family:sans-serif;font-style:normal;font-weight:normal" x="640" y="80">
    <tspan x="640" y="80"></tspan>
  </text>
  <text font-size="12.8" style="fill: #000000;text-anchor:start;font-family:sans-serif;font-style:normal;font-weight:normal" x="600" y="80">
    <tspan x="600" y="80"></tspan>
  </text>
  <text font-size="12.8" style="fill: #000000;text-anchor:start;font-family:sans-serif;font-style:normal;font-weight:normal" x="640" y="80">
    <tspan x="640" y="80"></tspan>
  </text>
  <text font-size="12.8" style="fill: #000000;text-anchor:start;font-family:sans-serif;font-style:normal;font-weight:normal" x="640" y="80">
    <tspan x="640" y="80"></tspan>
  </text>
  <text font-size="12.8" style="fill: #000000;text-anchor:start;font-family:sans-serif;font-style:normal;font-weight:normal" x="615" y="160">
    <tspan x="615" y="160"></tspan>
  </text>
  <g>
    <polyline style="fill: none; fill-opacity:0; stroke-width: 4; stroke: #000000" points="690,80 710.792,79.913 735.42,40.66 748.032,40.3213 "/>
    <polygon style="fill: #000000" points="755.529,40.12 745.667,45.3867 748.032,40.3213 745.399,35.3903 "/>
    <polygon style="fill: none; fill-opacity:0; stroke-width: 4; stroke: #000000" points="755.529,40.12 745.667,45.3867 748.032,40.3213 745.399,35.3903 "/>
  </g>
  <g>
    <polyline style="fill: none; fill-opacity:0; stroke-width: 4; stroke: #000000" points="760,80.6666 741.666,80.6666 715.41,39.8902 701.972,39.9483 "/>
    <polygon style="fill: #000000" points="694.472,39.9807 704.45,34.9375 701.972,39.9483 704.494,44.9374 "/>
    <polygon style="fill: none; fill-opacity:0; stroke-width: 4; stroke: #000000" points="694.472,39.9807 704.45,34.9375 701.972,39.9483 704.494,44.9374 "/>
  </g>
  <g>
    <polyline style="fill: none; fill-opacity:0; stroke-width: 4; stroke: #000000" points="760,160 726.668,160 726.668,173.361 "/>
    <polygon style="fill: #000000" points="726.668,180.861 721.668,170.861 726.668,173.361 731.668,170.861 "/>
    <polygon style="fill: none; fill-opacity:0; stroke-width: 4; stroke: #000000" points="726.668,180.861 721.668,170.861 726.668,173.361 731.668,170.861 "/>
  </g>
  <g>
    <polyline style="fill: none; fill-opacity:0; stroke-width: 4; stroke: #000000" points="540,160 497.666,160 497.666,342.666 1071,342.666 1071,312.444 "/>
    <polygon style="fill: #000000" points="1071,304.944 1076,314.944 1071,312.444 1066,314.944 "/>
    <polygon style="fill: none; fill-opacity:0; stroke-width: 4; stroke: #000000" points="1071,304.944 1076,314.944 1071,312.444 1066,314.944 "/>
  </g>
  <g>
    <g>
      <g>
        <rect style="fill: #e5e5e5" x="1001" y="260.472" width="140" height="40"/>
        <rect style="fill: none; fill-opacity:0; stroke-width: 4; stroke: #000000" x="1001" y="260.472" width="140" height="40"/>
        <text font-size="12.8" style="fill: #000000;text-anchor:middle;font-family:sans-serif;font-style:normal;font-weight:normal" x="1071" y="284.372">
          <tspan x="1071" y="284.372"></tspan>
        </text>
      </g>
      <text font-size="18.0622" style="fill: #000000;text-anchor:start;font-family:sans-serif;font-style:normal;font-weight:normal" x="1001" y="250.472">
        <tspan x="1001" y="250.472">ClassLoader</tspan>
      </text>
    </g>
    <g>
      <rect style="fill: #00a300" x="1001" y="260.472" width="20" height="40"/>
      <rect style="fill: none; fill-opacity:0; stroke-width: 4; stroke: #000000" x="1001" y="260.472" width="20" height="40"/>
      <text font-size="12.8" style="fill: #000000;text-anchor:middle;font-family:sans-serif;font-style:normal;font-weight:normal" x="1011" y="284.372">
        <tspan x="1011" y="284.372"></tspan>
      </text>
    </g>
    <g>
      <rect style="fill: #ffa500" x="1021" y="260.472" width="20" height="40"/>
      <rect style="fill: none; fill-opacity:0; stroke-width: 4; stroke: #000000" x="1021" y="260.472" width="20" height="40"/>
      <text font-size="12.8" style="fill: #000000;text-anchor:middle;font-family:sans-serif;font-style:normal;font-weight:normal" x="1031" y="284.372">
        <tspan x="1031" y="284.372"></tspan>
      </text>
    </g>
  </g>
  <g>
    <rect style="fill: #00a300" x="540" y="139.985" width="150" height="40"/>
    <rect style="fill: none; fill-opacity:0; stroke-width: 4; stroke: #000000" x="540" y="139.985" width="150" height="40"/>
    <text font-size="12.8" style="fill: #000000;text-anchor:middle;font-family:sans-serif;font-style:normal;font-weight:normal" x="615" y="163.885">
      <tspan x="615" y="163.885">_class_loader</tspan>
    </text>
  </g>
  <g>
    <g>
      <rect style="fill: #e5e5e5" x="1000.11" y="181.333" width="140" height="40"/>
      <rect style="fill: none; fill-opacity:0; stroke-width: 4; stroke: #000000" x="1000.11" y="181.333" width="140" height="40"/>
      <text font-size="12.8" style="fill: #000000;text-anchor:middle;font-family:sans-serif;font-style:normal;font-weight:normal" x="1070.11" y="205.233">
        <tspan x="1070.11" y="205.233"></tspan>
      </text>
    </g>
    <text font-size="18.0622" style="fill: #000000;text-anchor:start;font-family:sans-serif;font-style:normal;font-weight:normal" x="982.382" y="171.333">
      <tspan x="982.382" y="171.333">Vector&lt;Class&gt;</tspan>
    </text>
    <g>
      <line style="fill: none; fill-opacity:0; stroke-width: 4; stroke: #000000" x1="1126.05" y1="181.333" x2="1125.97" y2="151.972"/>
      <polygon style="fill: #000000" points="1125.95,144.472 1130.98,154.459 1125.97,151.972 1120.98,154.485 "/>
      <polygon style="fill: none; fill-opacity:0; stroke-width: 4; stroke: #000000" points="1125.95,144.472 1130.98,154.459 1125.97,151.972 1120.98,154.485 "/>
    </g>
    <g>
      <rect style="fill: #00a300" x="1001.33" y="181.333" width="20" height="40"/>
      <rect style="fill: none; fill-opacity:0; stroke-width: 4; stroke: #000000" x="1001.33" y="181.333" width="20" height="40"/>
      <text font-size="12.8" style="fill: #000000;text-anchor:middle;font-family:sans-serif;font-style:normal;font-weight:normal" x="1011.33" y="205.233">
        <tspan x="1011.33" y="205.233"></tspan>
      </text>
    </g>
    <g>
      <rect style="fill: #ffa500" x="1021.33" y="181.333" width="20" height="40"/>
      <rect style="fill: none; fill-opacity:0; stroke-width: 4; stroke: #000000" x="1021.33" y="181.333" width="20" height="40"/>
      <text font-size="12.8" style="fill: #000000;text-anchor:middle;font-family:sans-serif;font-style:normal;font-weight:normal" x="1031.33" y="205.233">
        <tspan x="1031.33" y="205.233"></tspan>
      </text>
    </g>
  </g>
  <g>
    <line style="fill: none; fill-opacity:0; stroke-width: 4; stroke: #000000" x1="1127.4" y1="260.472" x2="1127.63" y2="233.306"/>
    <polygon style="fill: #000000" points="1127.69,225.806 1132.61,235.848 1127.63,233.306 1122.61,235.763 "/>
    <polygon style="fill: none; fill-opacity:0; stroke-width: 4; stroke: #000000" points="1127.69,225.806 1132.61,235.848 1127.63,233.306 1122.61,235.763 "/>
  </g>
  <g>
    <line style="fill: none; fill-opacity:0; stroke-width: 4; stroke: #000000" x1="615" y1="220" x2="615.242" y2="246.504"/>
    <polygon style="fill: #000000" points="615.311,254.004 610.22,244.05 615.242,246.504 620.219,243.959 "/>
    <polygon style="fill: none; fill-opacity:0; stroke-width: 4; stroke: #000000" points="615.311,254.004 610.22,244.05 615.242,246.504 620.219,243.959 "/>
  </g>
  <g>
    <rect style="fill: #e5e5e5" x="221.184" y="60.1938" width="150" height="40"/>
    <rect style="fill: none; fill-opacity:0; stroke-width: 4; stroke: #000000" x="221.184" y="60.1938" width="150" height="40"/>
    <text font-size="12.8" style="fill: #000000;text-anchor:middle;font-family:sans-serif;font-style:normal;font-weight:normal" x="296.184" y="84.0938">
      <tspan x="296.184" y="84.0938">_head</tspan>
    </text>
  </g>
  <g>
    <rect style="fill: #ff9292" x="221.184" y="20.1938" width="150" height="40"/>
    <rect style="fill: none; fill-opacity:0; stroke-width: 4; stroke: #000000" x="221.184" y="20.1938" width="150" height="40"/>
    <text font-size="12.8" style="fill: #000000;text-anchor:middle;font-family:sans-serif;font-style:normal;font-weight:normal" x="296.184" y="44.0938">
      <tspan x="296.184" y="44.0938"></tspan>
    </text>
  </g>
  <g>
    <rect style="fill: #e5e5e5" x="221.184" y="100.194" width="150" height="40"/>
    <rect style="fill: none; fill-opacity:0; stroke-width: 4; stroke: #000000" x="221.184" y="100.194" width="150" height="40"/>
    <text font-size="12.8" style="fill: #000000;text-anchor:middle;font-family:sans-serif;font-style:normal;font-weight:normal" x="296.184" y="124.094">
      <tspan x="296.184" y="124.094">...</tspan>
    </text>
  </g>
  <text font-size="18.0622" style="fill: #000000;text-anchor:start;font-family:sans-serif;font-style:normal;font-weight:normal" x="221.184" y="0.193828">
    <tspan x="221.184" y="0.193828">ClassLoaderDataGraph*</tspan>
  </text>
  <text font-size="12.8" style="fill: #000000;text-anchor:start;font-family:sans-serif;font-style:normal;font-weight:normal" x="301.184" y="80.1938">
    <tspan x="301.184" y="80.1938"></tspan>
  </text>
  <g>
    <polyline style="fill: none; fill-opacity:0; stroke-width: 4; stroke: #000000" points="371.184,80.1938 423.704,79.913 483.738,39.8902 528.028,39.9766 "/>
    <polygon style="fill: #000000" points="535.528,39.9913 525.518,44.9717 528.028,39.9766 525.538,34.9718 "/>
    <polygon style="fill: none; fill-opacity:0; stroke-width: 4; stroke: #000000" points="535.528,39.9913 525.518,44.9717 528.028,39.9766 525.538,34.9718 "/>
  </g>
  <g>
    <polyline style="fill: none; fill-opacity:0; stroke-width: 4; stroke: #000000" points="760,240 735,240 735,420 701.972,420 "/>
    <polygon style="fill: #000000" points="694.472,420 704.472,415 701.972,420 704.472,425 "/>
    <polygon style="fill: none; fill-opacity:0; stroke-width: 4; stroke: #000000" points="694.472,420 704.472,415 701.972,420 704.472,425 "/>
  </g>
  <text font-size="12.8" style="fill: #000000;text-anchor:start;font-family:sans-serif;font-style:normal;font-weight:normal" x="660" y="420">
    <tspan x="660" y="420"></tspan>
  </text>
  <g>
    <rect style="fill: #e5e5e5" x="540" y="480" width="150" height="40"/>
    <rect style="fill: none; fill-opacity:0; stroke-width: 4; stroke: #000000" x="540" y="480" width="150" height="40"/>
    <text font-size="12.8" style="fill: #000000;text-anchor:middle;font-family:sans-serif;font-style:normal;font-weight:normal" x="615" y="503.9">
      <tspan x="615" y="503.9">_pool_holder</tspan>
    </text>
  </g>
  <text font-size="18.0622" style="fill: #000000;text-anchor:start;font-family:sans-serif;font-style:normal;font-weight:normal" x="540" y="380">
    <tspan x="540" y="380">ConstantPool*</tspan>
  </text>
  <text font-size="12.8" style="fill: #000000;text-anchor:start;font-family:sans-serif;font-style:normal;font-weight:normal" x="640" y="460">
    <tspan x="640" y="460"></tspan>
  </text>
  <text font-size="12.8" style="fill: #000000;text-anchor:start;font-family:sans-serif;font-style:normal;font-weight:normal" x="600" y="460">
    <tspan x="600" y="460"></tspan>
  </text>
  <g>
    <rect style="fill: #ff9292" x="540" y="400" width="150" height="40"/>
    <rect style="fill: none; fill-opacity:0; stroke-width: 4; stroke: #000000" x="540" y="400" width="150" height="40"/>
    <text font-size="12.8" style="fill: #000000;text-anchor:middle;font-family:sans-serif;font-style:normal;font-weight:normal" x="615" y="423.9">
      <tspan x="615" y="423.9"></tspan>
    </text>
  </g>
  <g>
    <rect style="fill: #e5e5e5" x="540" y="440" width="150" height="40"/>
    <rect style="fill: none; fill-opacity:0; stroke-width: 4; stroke: #000000" x="540" y="440" width="150" height="40"/>
    <text font-size="12.8" style="fill: #000000;text-anchor:middle;font-family:sans-serif;font-style:normal;font-weight:normal" x="615" y="463.9">
      <tspan x="615" y="463.9">_cache</tspan>
    </text>
  </g>
  <text font-size="12.8" style="fill: #000000;text-anchor:start;font-family:sans-serif;font-style:normal;font-weight:normal" x="680" y="460">
    <tspan x="680" y="460"></tspan>
  </text>
  <text font-size="12.8" style="fill: #000000;text-anchor:start;font-family:sans-serif;font-style:normal;font-weight:normal" x="620" y="460">
    <tspan x="620" y="460"></tspan>
  </text>
  <g>
    <rect style="fill: #e5e5e5" x="540" y="520.376" width="150.084" height="40"/>
    <rect style="fill: none; fill-opacity:0; stroke-width: 4; stroke: #000000" x="540" y="520.376" width="150.084" height="40"/>
    <text font-size="12.8" style="fill: #000000;text-anchor:middle;font-family:sans-serif;font-style:normal;font-weight:normal" x="615.042" y="544.276">
      <tspan x="615.042" y="544.276">_resolved_klasses</tspan>
    </text>
  </g>
  <g>
    <polyline style="fill: none; fill-opacity:0; stroke-width: 4; stroke: #000000" points="690,500 836,500 835.977,398.047 "/>
    <polygon style="fill: #000000" points="835.976,390.547 840.978,400.546 835.977,398.047 830.978,400.548 "/>
    <polygon style="fill: none; fill-opacity:0; stroke-width: 4; stroke: #000000" points="835.976,390.547 840.978,400.546 835.977,398.047 830.978,400.548 "/>
  </g>
  <text font-size="18.0622" style="fill: #000000;text-anchor:start;font-family:sans-serif;font-style:normal;font-weight:normal" x="770.963" y="378.369">
    <tspan x="770.963" y="378.369">InstanceKlass*</tspan>
  </text>
  <g>
    <rect style="fill: #add8e6" x="540" y="560" width="150" height="72"/>
    <rect style="fill: none; fill-opacity:0; stroke-width: 4; stroke: #000000" x="540" y="560" width="150" height="72"/>
    <text font-size="12.8" style="fill: #000000;text-anchor:middle;font-family:sans-serif;font-style:normal;font-weight:normal" x="615" y="583.9">
      <tspan x="615" y="583.9">const_pool[0]</tspan>
      <tspan x="615" y="599.9">...</tspan>
      <tspan x="615" y="615.9">const_pool[n]</tspan>
    </text>
  </g>
  <g>
    <rect style="fill: #ff9292" x="320" y="400" width="150" height="40"/>
    <rect style="fill: none; fill-opacity:0; stroke-width: 4; stroke: #000000" x="320" y="400" width="150" height="40"/>
    <text font-size="12.8" style="fill: #000000;text-anchor:middle;font-family:sans-serif;font-style:normal;font-weight:normal" x="395" y="423.9">
      <tspan x="395" y="423.9"></tspan>
    </text>
  </g>
  <g>
    <rect style="fill: #e5e5e5" x="320" y="440" width="150" height="40"/>
    <rect style="fill: none; fill-opacity:0; stroke-width: 4; stroke: #000000" x="320" y="440" width="150" height="40"/>
    <text font-size="12.8" style="fill: #000000;text-anchor:middle;font-family:sans-serif;font-style:normal;font-weight:normal" x="395" y="463.9">
      <tspan x="395" y="463.9">_constant_pool</tspan>
    </text>
  </g>
  <g>
    <rect style="fill: #e5e5e5" x="320.072" y="519.815" width="149.818" height="40.1849"/>
    <rect style="fill: none; fill-opacity:0; stroke-width: 4; stroke: #000000" x="320.072" y="519.815" width="149.818" height="40.1849"/>
    <text font-size="12.8" style="fill: #000000;text-anchor:middle;font-family:sans-serif;font-style:normal;font-weight:normal" x="394.981" y="543.808">
      <tspan x="394.981" y="543.808">_resolved_refernces</tspan>
    </text>
  </g>
  <text font-size="18.0622" style="fill: #000000;text-anchor:start;font-family:sans-serif;font-style:normal;font-weight:normal" x="320" y="380">
    <tspan x="320" y="380">ConstantPoolCache*</tspan>
  </text>
  <g>
    <rect style="fill: #e5e5e5" x="320" y="480" width="150" height="40"/>
    <rect style="fill: none; fill-opacity:0; stroke-width: 4; stroke: #000000" x="320" y="480" width="150" height="40"/>
    <text font-size="12.8" style="fill: #000000;text-anchor:middle;font-family:sans-serif;font-style:normal;font-weight:normal" x="395" y="503.9">
      <tspan x="395" y="503.9">...</tspan>
    </text>
  </g>
  <text font-size="12.8" style="fill: #000000;text-anchor:start;font-family:sans-serif;font-style:normal;font-weight:normal" x="420" y="460">
    <tspan x="420" y="460"></tspan>
  </text>
  <g>
    <polyline style="fill: none; fill-opacity:0; stroke-width: 4; stroke: #000000" points="540,460 517.81,460.088 497.904,419.814 481.972,419.92 "/>
    <polygon style="fill: #000000" points="474.472,419.97 484.438,414.904 481.972,419.92 484.505,424.903 "/>
    <polygon style="fill: none; fill-opacity:0; stroke-width: 4; stroke: #000000" points="474.472,419.97 484.438,414.904 481.972,419.92 484.505,424.903 "/>
  </g>
  <g>
    <polyline style="fill: none; fill-opacity:0; stroke-width: 4; stroke: #000000" points="470,460 495.158,460.088 513.464,419.814 528.028,419.916 "/>
    <polygon style="fill: #000000" points="535.528,419.969 525.493,424.898 528.028,419.916 525.563,414.899 "/>
    <polygon style="fill: none; fill-opacity:0; stroke-width: 4; stroke: #000000" points="535.528,419.969 525.493,424.898 528.028,419.916 525.563,414.899 "/>
  </g>
  <g>
    <rect style="fill: #add8e6" x="320" y="560" width="149.914" height="72"/>
    <rect style="fill: none; fill-opacity:0; stroke-width: 4; stroke: #000000" x="320" y="560" width="149.914" height="72"/>
    <text font-size="12.8" style="fill: #000000;text-anchor:middle;font-family:sans-serif;font-style:normal;font-weight:normal" x="394.957" y="583.9">
      <tspan x="394.957" y="583.9">entry[0]</tspan>
      <tspan x="394.957" y="599.9">...</tspan>
      <tspan x="394.957" y="615.9">entry[n]</tspan>
    </text>
  </g>
  <text font-size="12.7998" style="fill: #000000;text-anchor:start;font-family:sans-serif;font-style:normal;font-weight:normal" x="395" y="420">
    <tspan x="395" y="420"></tspan>
  </text>
  <g>
    <rect style="fill: #e5e5e5" x="1001" y="520.309" width="140" height="40"/>
    <rect style="fill: none; fill-opacity:0; stroke-width: 4; stroke: #000000" x="1001" y="520.309" width="140" height="40"/>
    <text font-size="12.8" style="fill: #000000;text-anchor:middle;font-family:sans-serif;font-style:normal;font-weight:normal" x="1071" y="544.209">
      <tspan x="1071" y="544.209"></tspan>
    </text>
  </g>
  <text font-size="18.0622" style="fill: #000000;text-anchor:start;font-family:sans-serif;font-style:normal;font-weight:normal" x="1001" y="510.309">
    <tspan x="1001" y="510.309">Object[]</tspan>
  </text>
  <g>
    <rect style="fill: #00a300" x="1001" y="520.309" width="20" height="40"/>
    <rect style="fill: none; fill-opacity:0; stroke-width: 4; stroke: #000000" x="1001" y="520.309" width="20" height="40"/>
    <text font-size="12.8" style="fill: #000000;text-anchor:middle;font-family:sans-serif;font-style:normal;font-weight:normal" x="1011" y="544.209">
      <tspan x="1011" y="544.209"></tspan>
    </text>
  </g>
  <g>
    <rect style="fill: #ffa500" x="1021" y="520.309" width="20" height="40"/>
    <rect style="fill: none; fill-opacity:0; stroke-width: 4; stroke: #000000" x="1021" y="520.309" width="20" height="40"/>
    <text font-size="12.8" style="fill: #000000;text-anchor:middle;font-family:sans-serif;font-style:normal;font-weight:normal" x="1031" y="544.209">
      <tspan x="1031" y="544.209"></tspan>
    </text>
  </g>
  <g>
    <rect style="fill: #00a300" x="319.941" y="519.815" width="149.931" height="40.6183"/>
    <rect style="fill: none; fill-opacity:0; stroke-width: 4; stroke: #000000" x="319.941" y="519.815" width="149.931" height="40.6183"/>
    <text font-size="12.8" style="fill: #000000;text-anchor:middle;font-family:sans-serif;font-style:normal;font-weight:normal" x="394.907" y="544.024">
      <tspan x="394.907" y="544.024">_resolved_refernces</tspan>
    </text>
  </g>
  <g>
    <polyline style="fill: none; fill-opacity:0; stroke-width: 4; stroke: #000000" points="469.872,540.124 519.801,540.124 519.801,651.471 779.369,651.471 779.369,540.309 989.03,540.309 "/>
    <polygon style="fill: #000000" points="996.53,540.309 986.53,545.309 989.03,540.309 986.53,535.309 "/>
    <polygon style="fill: none; fill-opacity:0; stroke-width: 4; stroke: #000000" points="996.53,540.309 986.53,545.309 989.03,540.309 986.53,535.309 "/>
  </g>
  <g>
    <polyline style="fill: none; fill-opacity:0; stroke-width: 4; stroke: #000000" points="760,200 712.334,200 712.334,280 212.5,280 212.5,388.028 "/>
    <polygon style="fill: #000000" points="212.5,395.528 207.5,385.528 212.5,388.028 217.5,385.528 "/>
    <polygon style="fill: none; fill-opacity:0; stroke-width: 4; stroke: #000000" points="212.5,395.528 207.5,385.528 212.5,388.028 217.5,385.528 "/>
  </g>
  <g>
    <rect style="fill: #e5e5e5" x="100" y="479.398" width="150" height="40"/>
    <rect style="fill: none; fill-opacity:0; stroke-width: 4; stroke: #000000" x="100" y="479.398" width="150" height="40"/>
    <text font-size="12.8" style="fill: #000000;text-anchor:middle;font-family:sans-serif;font-style:normal;font-weight:normal" x="175" y="503.298">
      <tspan x="175" y="503.298">_constMethod</tspan>
    </text>
  </g>
  <g>
    <rect style="fill: #ff9292" x="100" y="400" width="150" height="40"/>
    <rect style="fill: none; fill-opacity:0; stroke-width: 4; stroke: #000000" x="100" y="400" width="150" height="40"/>
    <text font-size="12.8" style="fill: #000000;text-anchor:middle;font-family:sans-serif;font-style:normal;font-weight:normal" x="175" y="423.9">
      <tspan x="175" y="423.9"></tspan>
    </text>
  </g>
  <g>
    <rect style="fill: #e5e5e5" x="100" y="439.62" width="150" height="40"/>
    <rect style="fill: none; fill-opacity:0; stroke-width: 4; stroke: #000000" x="100" y="439.62" width="150" height="40"/>
    <text font-size="12.8" style="fill: #000000;text-anchor:middle;font-family:sans-serif;font-style:normal;font-weight:normal" x="175" y="463.52">
      <tspan x="175" y="463.52">_code</tspan>
    </text>
  </g>
  <text font-size="18.0622" style="fill: #000000;text-anchor:start;font-family:sans-serif;font-style:normal;font-weight:normal" x="100" y="380">
    <tspan x="100" y="380">Method*</tspan>
  </text>
  <polyline style="fill: none; fill-opacity:0; stroke-width: 4; stroke: #000000" points="247.102,639.918 495.304,639.918 495.304,459.576 "/>
  <g>
    <polyline style="fill: none; fill-opacity:0; stroke-width: 4; stroke: #000000" points="100,499.398 70.1658,499.398 70.1658,599.918 85.1297,599.918 "/>
    <polygon style="fill: #000000" points="92.6297,599.918 82.6297,604.918 85.1297,599.918 82.6297,594.918 "/>
    <polygon style="fill: none; fill-opacity:0; stroke-width: 4; stroke: #000000" points="92.6297,599.918 82.6297,604.918 85.1297,599.918 82.6297,594.918 "/>
  </g>
  <text font-size="12.8" style="fill: #000000;text-anchor:start;font-family:sans-serif;font-style:normal;font-weight:normal" x="136.12" y="544.462">
    <tspan x="136.12" y="544.462"></tspan>
  </text>
  <text font-size="12.8" style="fill: #000000;text-anchor:start;font-family:sans-serif;font-style:normal;font-weight:normal" x="221.23" y="619.838">
    <tspan x="221.23" y="619.838"></tspan>
  </text>
  <g>
    <rect style="fill: #e5e5e5" x="97.1018" y="619.918" width="150" height="40"/>
    <rect style="fill: none; fill-opacity:0; stroke-width: 4; stroke: #000000" x="97.1018" y="619.918" width="150" height="40"/>
    <text font-size="12.8" style="fill: #000000;text-anchor:middle;font-family:sans-serif;font-style:normal;font-weight:normal" x="172.102" y="643.818">
      <tspan x="172.102" y="643.818">_constants</tspan>
    </text>
  </g>
  <g>
    <rect style="fill: #ff9292" x="97.1018" y="579.918" width="150" height="40"/>
    <rect style="fill: none; fill-opacity:0; stroke-width: 4; stroke: #000000" x="97.1018" y="579.918" width="150" height="40"/>
    <text font-size="12.8" style="fill: #000000;text-anchor:middle;font-family:sans-serif;font-style:normal;font-weight:normal" x="172.102" y="603.818">
      <tspan x="172.102" y="603.818"></tspan>
    </text>
  </g>
  <g>
    <rect style="fill: #add8e6" x="97.1018" y="659.122" width="150" height="40"/>
    <rect style="fill: none; fill-opacity:0; stroke-width: 4; stroke: #000000" x="97.1018" y="659.122" width="150" height="40"/>
    <text font-size="12.8" style="fill: #000000;text-anchor:middle;font-family:sans-serif;font-style:normal;font-weight:normal" x="172.102" y="683.022">
      <tspan x="172.102" y="683.022">bytecodes, tables</tspan>
    </text>
  </g>
  <text font-size="18.0622" style="fill: #000000;text-anchor:start;font-family:sans-serif;font-style:normal;font-weight:normal" x="97.1018" y="559.918">
    <tspan x="97.1018" y="559.918">ConstMethod*</tspan>
  </text>
  <text font-size="12.8" style="fill: #000000;text-anchor:start;font-family:sans-serif;font-style:normal;font-weight:normal" x="217.102" y="639.918">
    <tspan x="217.102" y="639.918"></tspan>
  </text>
  <text font-size="12.8" style="fill: #000000;text-anchor:start;font-family:sans-serif;font-style:normal;font-weight:normal" x="172.102" y="679.122">
    <tspan x="172.102" y="679.122"></tspan>
  </text>
  <g>
    <g>
      <rect style="fill: #e5e5e5" x="-139.466" y="440.55" width="150" height="40"/>
      <rect style="fill: none; fill-opacity:0; stroke-width: 4; stroke: #000000" x="-139.466" y="440.55" width="150" height="40"/>
      <text font-size="12.8" style="fill: #000000;text-anchor:middle;font-family:sans-serif;font-style:normal;font-weight:normal" x="-64.4664" y="464.45">
        <tspan x="-64.4664" y="464.45">Method*</tspan>
      </text>
    </g>
    <g>
      <rect style="fill: #ff9292" x="-139.466" y="400.55" width="150" height="40"/>
      <rect style="fill: none; fill-opacity:0; stroke-width: 4; stroke: #000000" x="-139.466" y="400.55" width="150" height="40"/>
      <text font-size="12.8" style="fill: #000000;text-anchor:middle;font-family:sans-serif;font-style:normal;font-weight:normal" x="-64.4664" y="424.45">
        <tspan x="-64.4664" y="424.45"></tspan>
      </text>
    </g>
    <g>
      <rect style="fill: #e5e5e5" x="-139.466" y="480.55" width="150" height="40"/>
      <rect style="fill: none; fill-opacity:0; stroke-width: 4; stroke: #000000" x="-139.466" y="480.55" width="150" height="40"/>
      <text font-size="12.8" style="fill: #000000;text-anchor:middle;font-family:sans-serif;font-style:normal;font-weight:normal" x="-64.4664" y="504.45">
        <tspan x="-64.4664" y="504.45">...</tspan>
      </text>
    </g>
    <text font-size="18.0622" style="fill: #000000;text-anchor:start;font-family:sans-serif;font-style:normal;font-weight:normal" x="-139.466" y="380.55">
      <tspan x="-139.466" y="380.55">CompiledMethod*</tspan>
    </text>
  </g>
  <g>
    <polyline style="fill: none; fill-opacity:0; stroke-width: 4; stroke: #000000" points="10.5336,460.55 30.1321,460.081 69.4712,420.425 88.029,420.167 "/>
    <polygon style="fill: #000000" points="95.5283,420.062 85.5989,425.201 88.029,420.167 85.4596,415.202 "/>
    <polygon style="fill: none; fill-opacity:0; stroke-width: 4; stroke: #000000" points="95.5283,420.062 85.5989,425.201 88.029,420.167 85.4596,415.202 "/>
  </g>
  <g>
    <polyline style="fill: none; fill-opacity:0; stroke-width: 4; stroke: #000000" points="100,459.62 76.7679,459.764 37.1116,420.108 22.504,420.351 "/>
    <polygon style="fill: #000000" points="15.0051,420.475 24.9206,415.31 22.504,420.351 25.0868,425.309 "/>
    <polygon style="fill: none; fill-opacity:0; stroke-width: 4; stroke: #000000" points="15.0051,420.475 24.9206,415.31 22.504,420.351 25.0868,425.309 "/>
  </g>
</svg>
