<?xml version="1.0" encoding="UTF-8" standalone="no"?>
<!DOCTYPE svg PUBLIC "-//W3C//DTD SVG 1.0//EN" "http://www.w3.org/TR/2001/PR-SVG-20010719/DTD/svg10.dtd">
<svg width="69cm" height="37cm" viewBox="-181 -33 1362 739" xmlns="http://www.w3.org/2000/svg" xmlns:xlink="http://www.w3.org/1999/xlink">
  <text font-size="12.8" style="fill: #000000;text-anchor:start;font-family:sans-serif;font-style:normal;font-weight:normal" x="-50" y="280">
    <tspan x="-50" y="280"></tspan>
  </text>
  <text font-size="12.8" style="fill: #000000;text-anchor:start;font-family:sans-serif;font-style:normal;font-weight:normal" x="-70" y="417.154">
    <tspan x="-70" y="417.154"></tspan>
  </text>
  <g>
    <rect style="fill: #ffffff" x="60" y="-31.6622" width="880" height="736.067"/>
    <rect style="fill: none; fill-opacity:0; stroke-width: 2; stroke: #000000" x="60" y="-31.6622" width="880" height="736.067"/>
  </g>
  <text font-size="18.0622" style="fill: #000000;text-anchor:start;font-family:sans-serif;font-style:normal;font-weight:normal" x="829.03" y="689.372">
    <tspan x="829.03" y="689.372">Metaspace</tspan>
  </text>
  <g>
    <rect style="fill: #ffffff" x="-180" y="130" width="220" height="574.306"/>
    <rect style="fill: none; fill-opacity:0; stroke-width: 2; stroke: #000000" x="-180" y="130" width="220" height="574.306"/>
    <text font-size="12.8" style="fill: #000000;text-anchor:middle;font-family:sans-serif;font-style:normal;font-weight:normal" x="-70" y="421.053">
      <tspan x="-70" y="421.053"></tspan>
    </text>
  </g>
  <text font-size="18.0622" style="fill: #000000;text-anchor:start;font-family:sans-serif;font-style:normal;font-weight:normal" x="-81.5856" y="691.922">
    <tspan x="-81.5856" y="691.922">Code Cache</tspan>
  </text>
  <g>
    <rect style="fill: #ffffff" x="960" y="-30" width="220" height="734.306"/>
    <rect style="fill: none; fill-opacity:0; stroke-width: 2; stroke: #000000" x="960" y="-30" width="220" height="734.306"/>
  </g>
  <text font-size="18.0622" style="fill: #000000;text-anchor:start;font-family:sans-serif;font-style:normal;font-weight:normal" x="1076.35" y="690.958">
    <tspan x="1076.35" y="690.958">Java Heap</tspan>
  </text>
  <g>
    <rect style="fill: #ffffff" x="-180" y="-30" width="220" height="146.389"/>
    <rect style="fill: none; fill-opacity:0; stroke-width: 2; stroke: #000000" x="-180" y="-30" width="220" height="146.389"/>
    <text font-size="12.8" style="fill: #000000;text-anchor:middle;font-family:sans-serif;font-style:normal;font-weight:normal" x="-70" y="47.0944">
      <tspan x="-70" y="47.0944"></tspan>
    </text>
  </g>
  <g>
    <text font-size="18.0622" style="fill: #000000;text-anchor:start;font-family:sans-serif;font-style:normal;font-weight:normal" x="1000" y="7.14376">
      <tspan x="1000" y="7.14376">Foo</tspan>
    </text>
    <g>
      <g>
        <rect style="fill: #e5e5e5" x="1000" y="20" width="140" height="40"/>
        <rect style="fill: none; fill-opacity:0; stroke-width: 4; stroke: #000000" x="1000" y="20" width="140" height="40"/>
        <text font-size="12.8" style="fill: #000000;text-anchor:middle;font-family:sans-serif;font-style:normal;font-weight:normal" x="1070" y="43.9">
          <tspan x="1070" y="43.9"></tspan>
        </text>
      </g>
      <g>
        <rect style="fill: #00a300" x="1000" y="20" width="20" height="40"/>
        <rect style="fill: none; fill-opacity:0; stroke-width: 4; stroke: #000000" x="1000" y="20" width="20" height="40"/>
        <text font-size="12.8" style="fill: #000000;text-anchor:middle;font-family:sans-serif;font-style:normal;font-weight:normal" x="1010" y="43.9">
          <tspan x="1010" y="43.9"></tspan>
        </text>
      </g>
      <g>
        <rect style="fill: #ffa500" x="1020" y="20" width="20" height="40"/>
        <rect style="fill: none; fill-opacity:0; stroke-width: 4; stroke: #000000" x="1020" y="20" width="20" height="40"/>
        <text font-size="12.8" style="fill: #000000;text-anchor:middle;font-family:sans-serif;font-style:normal;font-weight:normal" x="1030" y="43.9">
          <tspan x="1030" y="43.9"></tspan>
        </text>
      </g>
    </g>
  </g>
  <g>
    <rect style="fill: #e5e5e5" x="760" y="140" width="150" height="40"/>
    <rect style="fill: none; fill-opacity:0; stroke-width: 4; stroke: #000000" x="760" y="140" width="150" height="40"/>
    <text font-size="12.8" style="fill: #000000;text-anchor:middle;font-family:sans-serif;font-style:normal;font-weight:normal" x="835" y="163.9">
      <tspan x="835" y="163.9">_next_link</tspan>
    </text>
  </g>
  <g>
    <rect style="fill: #ff9292" x="760" y="20" width="150" height="40"/>
    <rect style="fill: none; fill-opacity:0; stroke-width: 4; stroke: #000000" x="760" y="20" width="150" height="40"/>
    <text font-size="12.8" style="fill: #000000;text-anchor:middle;font-family:sans-serif;font-style:normal;font-weight:normal" x="835" y="43.9">
      <tspan x="835" y="43.9"></tspan>
    </text>
  </g>
  <g>
    <rect style="fill: #e5e5e5" x="760" y="180" width="150" height="40"/>
    <rect style="fill: none; fill-opacity:0; stroke-width: 4; stroke: #000000" x="760" y="180" width="150" height="40"/>
    <text font-size="12.8" style="fill: #000000;text-anchor:middle;font-family:sans-serif;font-style:normal;font-weight:normal" x="835" y="203.9">
      <tspan x="835" y="203.9">_methods</tspan>
    </text>
  </g>
  <g>
    <rect style="fill: #e5e5e5" x="760" y="220" width="150" height="40"/>
    <rect style="fill: none; fill-opacity:0; stroke-width: 4; stroke: #000000" x="760" y="220" width="150" height="40"/>
    <text font-size="12.8" style="fill: #000000;text-anchor:middle;font-family:sans-serif;font-style:normal;font-weight:normal" x="835" y="243.9">
      <tspan x="835" y="243.9">_constants</tspan>
    </text>
  </g>
  <g>
    <rect style="fill: #e5e5e5" x="760" y="100" width="150" height="40"/>
    <rect style="fill: none; fill-opacity:0; stroke-width: 4; stroke: #000000" x="760" y="100" width="150" height="40"/>
    <text font-size="12.8" style="fill: #000000;text-anchor:middle;font-family:sans-serif;font-style:normal;font-weight:normal" x="835" y="123.9">
      <tspan x="835" y="123.9">_java_mirror</tspan>
    </text>
  </g>
  <text font-size="18.0622" style="fill: #000000;text-anchor:start;font-family:sans-serif;font-style:normal;font-weight:normal" x="760" y="0">
    <tspan x="760" y="0">InstanceKlass*</tspan>
  </text>
  <text font-size="12.8" style="fill: #000000;text-anchor:start;font-family:sans-serif;font-style:normal;font-weight:normal" x="835" y="160">
    <tspan x="835" y="160"></tspan>
  </text>
  <g>
    <rect style="fill: #e5e5e5" x="760" y="60.6666" width="150" height="40"/>
    <rect style="fill: none; fill-opacity:0; stroke-width: 4; stroke: #000000" x="760" y="60.6666" width="150" height="40"/>
    <text font-size="12.8" style="fill: #000000;text-anchor:middle;font-family:sans-serif;font-style:normal;font-weight:normal" x="835" y="84.5666">
      <tspan x="835" y="84.5666">_class_loader_data</tspan>
    </text>
  </g>
  <g>
    <line style="fill: none; fill-opacity:0; stroke-width: 4; stroke: #000000" x1="1031.79" y1="40.3144" x2="921.972" y2="40.0309"/>
    <polygon style="fill: #000000" points="914.472,40.0115 924.485,35.0374 921.972,40.0309 924.459,45.0373 "/>
    <polygon style="fill: none; fill-opacity:0; stroke-width: 4; stroke: #000000" points="914.472,40.0115 924.485,35.0374 921.972,40.0309 924.459,45.0373 "/>
  </g>
  <g>
    <rect style="fill: #add8e6" x="760" y="260.666" width="150.333" height="56"/>
    <rect style="fill: none; fill-opacity:0; stroke-width: 4; stroke: #000000" x="760" y="260.666" width="150.333" height="56"/>
    <text font-size="12.8" style="fill: #000000;text-anchor:middle;font-family:sans-serif;font-style:normal;font-weight:normal" x="835.167" y="284.566">
      <tspan x="835.167" y="284.566">OopMap</tspan>
      <tspan x="835.167" y="300.566">VTable, ITable</tspan>
    </text>
  </g>
  <g>
    <text font-size="18.0622" style="fill: #000000;text-anchor:start;font-family:sans-serif;font-style:italic;font-weight:700" x="-172.205" y="-10">
      <tspan x="-172.205" y="-10">Caption:</tspan>
    </text>
    <g>
      <g>
        <rect style="fill: #add8e6" x="-169.247" y="14.4813" width="29.7715" height="16.9974"/>
        <rect style="fill: none; fill-opacity:0; stroke-width: 4; stroke: #000000" x="-169.247" y="14.4813" width="29.7715" height="16.9974"/>
        <text font-size="1.6" style="fill: #000000;text-anchor:middle;font-family:sans-serif;font-style:normal;font-weight:normal" x="-154.361" y="23.48">
          <tspan x="-154.361" y="23.48">...</tspan>
        </text>
      </g>
      <text font-size="15.8044" style="fill: #000000;text-anchor:start;font-family:sans-serif;font-style:normal;font-weight:normal" x="-128.587" y="26.238">
        <tspan x="-128.587" y="26.238">variable class part</tspan>
      </text>
      <text font-size="12.8" style="fill: #000000;text-anchor:start;font-family:sans-serif;font-style:normal;font-weight:normal" x="-102.383" y="14.4465">
        <tspan x="-102.383" y="14.4465"></tspan>
      </text>
    </g>
  </g>
  <g>
    <rect style="fill: #e5e5e5" x="1000" y="100" width="156.25" height="40"/>
    <rect style="fill: none; fill-opacity:0; stroke-width: 4; stroke: #000000" x="1000" y="100" width="156.25" height="40"/>
    <text font-size="12.8" style="fill: #000000;text-anchor:middle;font-family:sans-serif;font-style:normal;font-weight:normal" x="1078.13" y="123.9">
      <tspan x="1078.13" y="123.9"></tspan>
    </text>
  </g>
  <g>
    <rect style="fill: #00a300" x="1000" y="100" width="20" height="40"/>
    <rect style="fill: none; fill-opacity:0; stroke-width: 4; stroke: #000000" x="1000" y="100" width="20" height="40"/>
    <text font-size="12.8" style="fill: #000000;text-anchor:middle;font-family:sans-serif;font-style:normal;font-weight:normal" x="1010" y="123.9">
      <tspan x="1010" y="123.9"></tspan>
    </text>
  </g>
  <g>
    <rect style="fill: #ffa500" x="1020" y="100" width="20" height="40"/>
    <rect style="fill: none; fill-opacity:0; stroke-width: 4; stroke: #000000" x="1020" y="100" width="20" height="40"/>
    <text font-size="12.8" style="fill: #000000;text-anchor:middle;font-family:sans-serif;font-style:normal;font-weight:normal" x="1030" y="123.9">
      <tspan x="1030" y="123.9"></tspan>
    </text>
  </g>
  <text font-size="18.0622" style="fill: #000000;text-anchor:start;font-family:sans-serif;font-style:normal;font-weight:normal" x="1000" y="90">
    <tspan x="1000" y="90">Class&lt;Foo&gt;</tspan>
  </text>
  <g>
    <polyline style="fill: none; fill-opacity:0; stroke-width: 4; stroke: #000000" points="910,120 955.438,120 955.438,120 988.028,120 "/>
    <polygon style="fill: #000000" points="995.528,120 985.528,125 988.028,120 985.528,115 "/>
    <polygon style="fill: none; fill-opacity:0; stroke-width: 4; stroke: #000000" points="995.528,120 985.528,125 988.028,120 985.528,115 "/>
  </g>
  <g>
    <rect style="fill: #00a300" x="760.148" y="100.002" width="150" height="40"/>
    <rect style="fill: none; fill-opacity:0; stroke-width: 4; stroke: #000000" x="760.148" y="100.002" width="150" height="40"/>
    <text font-size="12.8" style="fill: #000000;text-anchor:middle;font-family:sans-serif;font-style:normal;font-weight:normal" x="835.148" y="123.902">
      <tspan x="835.148" y="123.902">_java_mirror</tspan>
    </text>
  </g>
  <g>
    <g>
      <rect style="fill: #00a300" x="-169.129" y="50" width="30.8423" height="16.9974"/>
      <rect style="fill: none; fill-opacity:0; stroke-width: 4; stroke: #000000" x="-169.129" y="50" width="30.8423" height="16.9974"/>
      <text font-size="1.6" style="fill: #000000;text-anchor:middle;font-family:sans-serif;font-style:normal;font-weight:normal" x="-153.708" y="58.9987">
        <tspan x="-153.708" y="58.9987">...</tspan>
      </text>
    </g>
    <text font-size="15.8044" style="fill: #000000;text-anchor:start;font-family:sans-serif;font-style:normal;font-weight:normal" x="-128.469" y="61.7568">
      <tspan x="-128.469" y="61.7568">heap pointers</tspan>
    </text>
  </g>
  <g>
    <rect style="fill: #fcdce2" x="1156.4" y="100.191" width="18.7411" height="39.6755"/>
    <rect style="fill: none; fill-opacity:0; stroke-width: 4.0005; stroke: #000000" x="1156.4" y="100.191" width="18.7411" height="39.6755"/>
    <text font-size="1.6" style="fill: #000000;text-anchor:middle;font-family:sans-serif;font-style:normal;font-weight:normal" x="1165.77" y="120.528">
      <tspan x="1165.77" y="120.528"></tspan>
    </text>
  </g>
  <polyline style="fill: none; fill-opacity:0; stroke-width: 4; stroke: #000000" points="1165.77,100.191 1165.77,70.1897 983.076,70.1897 983.076,40.1886 "/>
  <text font-size="12.8" style="fill: #000000;text-anchor:start;font-family:sans-serif;font-style:normal;font-weight:normal" x="-103.136" y="49.9652">
    <tspan x="-103.136" y="49.9652"></tspan>
  </text>
  <g>
    <rect style="fill: #fcdce2" x="-169.129" y="85.6742" width="30.8423" height="16.9974"/>
    <rect style="fill: none; fill-opacity:0; stroke-width: 4; stroke: #000000" x="-169.129" y="85.6742" width="30.8423" height="16.9974"/>
    <text font-size="1.6" style="fill: #000000;text-anchor:middle;font-family:sans-serif;font-style:normal;font-weight:normal" x="-153.708" y="94.6729">
      <tspan x="-153.708" y="94.6729">...</tspan>
    </text>
  </g>
  <text font-size="15.8044" style="fill: #000000;text-anchor:start;font-family:sans-serif;font-style:normal;font-weight:normal" x="-128.469" y="97.431">
    <tspan x="-128.469" y="97.431">injected fields</tspan>
  </text>
  <g>
    <rect style="fill: #e5e5e5" x="540" y="60" width="150" height="40"/>
    <rect style="fill: none; fill-opacity:0; stroke-width: 4; stroke: #000000" x="540" y="60" width="150" height="40"/>
    <text font-size="12.8" style="fill: #000000;text-anchor:middle;font-family:sans-serif;font-style:normal;font-weight:normal" x="615" y="83.9">
      <tspan x="615" y="83.9">_klasses</tspan>
    </text>
  </g>
  <g>
    <rect style="fill: #ff9292" x="540" y="20" width="150" height="40"/>
    <rect style="fill: none; fill-opacity:0; stroke-width: 4; stroke: #000000" x="540" y="20" width="150" height="40"/>
    <text font-size="12.8" style="fill: #000000;text-anchor:middle;font-family:sans-serif;font-style:normal;font-weight:normal" x="615" y="43.9">
      <tspan x="615" y="43.9"></tspan>
    </text>
  </g>
  <g>
    <rect style="fill: #e5e5e5" x="540" y="140" width="150" height="40"/>
    <rect style="fill: none; fill-opacity:0; stroke-width: 4; stroke: #000000" x="540" y="140" width="150" height="40"/>
    <text font-size="12.8" style="fill: #000000;text-anchor:middle;font-family:sans-serif;font-style:normal;font-weight:normal" x="615" y="163.9">
      <tspan x="615" y="163.9">_class_loader</tspan>
    </text>
  </g>
  <g>
    <rect style="fill: #e5e5e5" x="540" y="100" width="150" height="40"/>
    <rect style="fill: none; fill-opacity:0; stroke-width: 4; stroke: #000000" x="540" y="100" width="150" height="40"/>
    <text font-size="12.8" style="fill: #000000;text-anchor:middle;font-family:sans-serif;font-style:normal;font-weight:normal" x="615" y="123.9">
      <tspan x="615" y="123.9">...</tspan>
    </text>
  </g>
  <g>
    <rect style="fill: #e5e5e5" x="540" y="180" width="150" height="40"/>
    <rect style="fill: none; fill-opacity:0; stroke-width: 4; stroke: #000000" x="540" y="180" width="150" height="40"/>
    <text font-size="12.8" style="fill: #000000;text-anchor:middle;font-family:sans-serif;font-style:normal;font-weight:normal" x="615" y="203.9">
      <tspan x="615" y="203.9">_next</tspan>
    </text>
  </g>
  <text font-size="18.0622" style="fill: #000000;text-anchor:start;font-family:sans-serif;font-style:normal;font-weight:normal" x="540" y="0">
    <tspan x="540" y="0">ClassLoaderData*</tspan>
  </text>
  <text font-size="12.8" style="fill: #000000;text-anchor:start;font-family:sans-serif;font-style:normal;font-weight:normal" x="640" y="80">
    <tspan x="640" y="80"></tspan>
  </text>
  <text font-size="12.8" style="fill: #000000;text-anchor:start;font-family:sans-serif;font-style:normal;font-weight:normal" x="640" y="80">
    <tspan x="640" y="80"></tspan>
  </text>
  <text font-size="12.8" style="fill: #000000;text-anchor:start;font-family:sans-serif;font-style:normal;font-weight:normal" x="600" y="80">
    <tspan x="600" y="80"></tspan>
  </text>
  <text font-size="12.8" style="fill: #000000;text-anchor:start;font-family:sans-serif;font-style:normal;font-weight:normal" x="640" y="80">
    <tspan x="640" y="80"></tspan>
  </text>
  <text font-size="12.8" style="fill: #000000;text-anchor:start;font-family:sans-serif;font-style:normal;font-weight:normal" x="640" y="80">
    <tspan x="640" y="80"></tspan>
  </text>
  <text font-size="12.8" style="fill: #000000;text-anchor:start;font-family:sans-serif;font-style:normal;font-weight:normal" x="615" y="160">
    <tspan x="615" y="160"></tspan>
  </text>
  <g>
    <polyline style="fill: none; fill-opacity:0; stroke-width: 4; stroke: #000000" points="690,80 710.792,79.913 735.42,40.66 748.032,40.3213 "/>
    <polygon style="fill: #000000" points="755.529,40.12 745.667,45.3867 748.032,40.3213 745.399,35.3903 "/>
    <polygon style="fill: none; fill-opacity:0; stroke-width: 4; stroke: #000000" points="755.529,40.12 745.667,45.3867 748.032,40.3213 745.399,35.3903 "/>
  </g>
  <g>
    <polyline style="fill: none; fill-opacity:0; stroke-width: 4; stroke: #000000" points="760,80.6666 741.666,80.6666 715.41,39.8902 701.972,39.9483 "/>
    <polygon style="fill: #000000" points="694.472,39.9807 704.45,34.9375 701.972,39.9483 704.494,44.9374 "/>
    <polygon style="fill: none; fill-opacity:0; stroke-width: 4; stroke: #000000" points="694.472,39.9807 704.45,34.9375 701.972,39.9483 704.494,44.9374 "/>
  </g>
  <g>
    <polyline style="fill: none; fill-opacity:0; stroke-width: 4; stroke: #000000" points="760,160 726.668,160 726.668,173.361 "/>
    <polygon style="fill: #000000" points="726.668,180.861 721.668,170.861 726.668,173.361 731.668,170.861 "/>
    <polygon style="fill: none; fill-opacity:0; stroke-width: 4; stroke: #000000" points="726.668,180.861 721.668,170.861 726.668,173.361 731.668,170.861 "/>
  </g>
  <g>
    <polyline style="fill: none; fill-opacity:0; stroke-width: 4; stroke: #000000" points="540,160 497.666,160 497.666,342.666 1071,342.666 1071,312.444 "/>
    <polygon style="fill: #000000" points="1071,304.944 1076,314.944 1071,312.444 1066,314.944 "/>
    <polygon style="fill: none; fill-opacity:0; stroke-width: 4; stroke: #000000" points="1071,304.944 1076,314.944 1071,312.444 1066,314.944 "/>
  </g>
  <g>
    <rect style="fill: #e5e5e5" x="1001" y="260.472" width="164.116" height="40"/>
    <rect style="fill: none; fill-opacity:0; stroke-width: 4; stroke: #000000" x="1001" y="260.472" width="164.116" height="40"/>
    <text font-size="12.8" style="fill: #000000;text-anchor:middle;font-family:sans-serif;font-style:normal;font-weight:normal" x="1083.06" y="284.372">
      <tspan x="1083.06" y="284.372"></tspan>
    </text>
  </g>
  <text font-size="18.0622" style="fill: #000000;text-anchor:start;font-family:sans-serif;font-style:normal;font-weight:normal" x="1001" y="250.472">
    <tspan x="1001" y="250.472">ClassLoader</tspan>
  </text>
  <g>
    <rect style="fill: #00a300" x="1001" y="260.472" width="20" height="40"/>
    <rect style="fill: none; fill-opacity:0; stroke-width: 4; stroke: #000000" x="1001" y="260.472" width="20" height="40"/>
    <text font-size="12.8" style="fill: #000000;text-anchor:middle;font-family:sans-serif;font-style:normal;font-weight:normal" x="1011" y="284.372">
      <tspan x="1011" y="284.372"></tspan>
    </text>
  </g>
  <g>
    <rect style="fill: #ffa500" x="1021" y="260.472" width="20" height="40"/>
    <rect style="fill: none; fill-opacity:0; stroke-width: 4; stroke: #000000" x="1021" y="260.472" width="20" height="40"/>
    <text font-size="12.8" style="fill: #000000;text-anchor:middle;font-family:sans-serif;font-style:normal;font-weight:normal" x="1031" y="284.372">
      <tspan x="1031" y="284.372"></tspan>
    </text>
  </g>
  <g>
    <rect style="fill: #00a300" x="540" y="139.985" width="150" height="40"/>
    <rect style="fill: none; fill-opacity:0; stroke-width: 4; stroke: #000000" x="540" y="139.985" width="150" height="40"/>
    <text font-size="12.8" style="fill: #000000;text-anchor:middle;font-family:sans-serif;font-style:normal;font-weight:normal" x="615" y="163.885">
      <tspan x="615" y="163.885">_class_loader</tspan>
    </text>
  </g>
</svg>
